<svg width="915" height="470" viewBox="0 0 915 470" fill="none" xmlns="http://www.w3.org/2000/svg">
<path d="M180.699 375.44L180.714 375.439H180.614C183.014 375.239 197.014 375.239 211.914 375.439C226.814 375.539 239.914 375.639 241.114 375.639C243.114 375.639 243.414 376.139 243.414 379.939C243.314 382.439 242.414 385.639 241.114 387.939C239.714 390.339 237.614 392.239 235.114 393.139C232.214 394.339 226.514 394.639 209.614 394.639C189.014 394.639 187.714 394.539 184.014 392.339C181.914 391.139 179.314 388.539 178.314 386.639C177.214 384.739 176.414 381.439 176.414 379.439C176.414 375.644 176.514 375.639 180.699 375.44Z" fill="#DDA517"/>
<path d="M164.914 356.639C164.914 352.339 165.314 351.239 167.414 349.639C169.814 347.739 172.014 347.639 209.914 347.639C249.914 347.639 249.914 347.639 252.614 349.939C254.414 351.339 255.514 353.439 255.914 355.839C256.314 359.039 255.914 360.139 250.614 366.139L214.214 366.439C194.214 366.639 176.114 366.539 173.914 366.139C171.714 365.839 168.814 364.739 167.414 363.639C165.314 362.039 164.914 360.939 164.914 356.639Z" fill="#DDA517"/>
<path d="M516.114 293.539C517.714 292.939 520.914 291.839 523.414 291.139C525.914 290.439 529.614 289.739 531.714 289.739C533.714 289.639 538.014 290.339 541.114 291.139C544.314 292.039 548.714 293.839 550.914 295.339C553.114 296.739 555.914 299.139 557.114 300.539C558.414 301.939 560.314 304.939 561.414 307.139C562.514 309.339 563.814 313.139 564.414 315.639C564.914 318.139 565.414 322.939 565.414 332.639H513.414L514.214 335.339C514.714 336.939 515.714 339.239 516.414 340.639C517.114 342.039 519.114 344.439 520.814 345.939C522.514 347.539 525.514 349.139 527.414 349.739C529.314 350.239 532.114 350.639 533.614 350.639C535.214 350.639 538.514 349.939 541.114 349.039C543.814 348.139 547.314 346.039 552.314 341.139L557.314 344.639C560.114 346.539 562.414 348.339 562.414 348.639C562.414 348.939 561.214 350.639 559.714 352.539C558.114 354.339 555.114 357.139 552.914 358.539C550.714 360.039 546.914 361.939 544.414 362.739C541.914 363.539 537.014 364.139 533.414 364.139C529.814 364.139 524.914 363.539 522.414 362.739C519.914 361.939 516.114 360.039 513.914 358.539C511.714 357.039 508.514 354.339 506.814 352.439C505.114 350.639 502.814 347.539 501.814 345.639C500.714 343.739 499.214 340.139 498.514 337.639C497.714 334.939 497.414 329.639 497.614 324.639C497.914 317.839 498.514 314.839 500.914 309.739C502.814 305.739 505.714 301.739 508.614 299.039C511.314 296.639 514.614 294.139 516.114 293.539Z" fill="#DDA517"/>
<path d="M422.814 269.139C423.114 268.039 423.514 265.939 423.914 264.439C424.414 261.639 424.514 261.639 440.414 261.639L441.314 265.939C441.814 268.239 443.214 273.539 444.314 277.639C445.514 281.739 447.814 289.839 449.414 295.639C451.014 301.439 453.614 311.139 455.314 317.139C456.914 323.239 459.014 330.639 459.914 333.639C460.814 336.639 461.614 338.939 461.814 338.639C462.014 338.339 463.114 334.539 464.214 330.139C465.414 325.739 467.714 316.739 469.414 310.139C471.114 303.539 473.814 293.239 475.414 287.139C477.114 281.139 479.214 273.139 481.914 262.639H489.714C497.114 262.639 497.414 262.739 497.014 264.939C496.814 266.139 495.214 272.539 493.414 279.139C491.714 285.739 488.914 296.139 487.214 302.139C485.614 308.239 483.914 314.739 483.414 316.639C483.014 318.539 481.914 322.739 481.014 325.939C480.114 329.039 478.714 334.239 477.814 337.439C476.914 340.539 475.814 344.739 475.414 346.639C475.014 348.539 473.914 352.739 473.014 355.939C472.114 359.039 471.414 361.839 471.414 362.139C471.414 362.439 467.414 362.639 462.414 362.639C456.214 362.639 453.214 362.239 452.714 361.439C452.314 360.739 451.714 358.539 451.314 356.639C450.914 354.739 449.214 348.239 447.514 342.139C445.914 336.139 443.614 327.739 442.414 323.639C441.214 319.539 439.914 314.539 439.414 312.639C438.914 310.739 437.614 305.739 436.414 301.639C435.214 297.539 434.014 293.139 433.814 291.939C433.614 290.639 433.114 289.639 432.714 289.639C432.214 289.639 431.114 292.639 430.114 296.339C429.114 300.139 427.914 304.739 427.414 306.639C426.914 308.539 425.714 313.339 424.614 317.139C423.514 321.039 421.914 326.739 421.014 329.939C420.114 333.039 418.714 338.239 417.814 341.439C417.014 344.539 415.514 350.039 414.714 353.639C413.914 357.239 413.014 360.739 412.814 361.439C412.514 362.239 409.814 362.639 403.914 362.639C399.214 362.639 395.214 362.339 395.014 361.939C394.714 361.439 392.914 355.339 390.914 348.139C388.914 341.039 386.214 330.839 384.814 325.639C383.414 320.439 380.414 309.439 378.214 301.139C376.014 292.939 373.914 284.839 373.414 283.139C372.914 281.539 371.714 276.739 370.614 272.639C369.614 268.539 368.414 264.539 368.114 263.939C367.614 262.939 369.314 262.639 375.414 262.639C382.714 262.639 383.514 262.839 384.414 264.939C384.914 266.139 386.114 269.839 387.014 273.139C387.914 276.439 389.014 280.739 389.414 282.639C389.814 284.539 391.614 291.439 393.314 297.939C395.014 304.339 397.714 314.739 399.414 320.939C401.014 327.039 402.714 333.539 403.214 335.139C404.114 338.039 404.214 338.039 405.814 332.139C406.714 328.839 407.914 324.539 408.414 322.639C408.914 320.739 410.314 315.739 411.414 311.639C412.514 307.54 414.114 301.94 414.914 299.14L414.914 299.139C415.714 296.439 417.714 288.939 419.314 282.639C421.014 276.339 422.514 270.239 422.814 269.139Z" fill="#DDA517"/>
<path fill-rule="evenodd" clip-rule="evenodd" d="M577.414 311.139V362.639H592.414V353.639C597.414 358.239 600.914 360.639 603.414 361.839C606.814 363.439 609.714 364.039 615.414 364.039C621.114 364.039 624.114 363.439 627.914 361.739C630.714 360.539 634.214 358.339 635.714 356.839C637.314 355.339 639.814 352.139 641.414 349.639C643.114 347.139 645.114 342.639 645.914 339.639C646.714 336.639 647.414 331.039 647.414 327.139C647.414 323.239 646.814 318.139 646.014 315.639C645.314 313.139 643.814 309.339 642.714 307.139C641.514 304.939 638.714 301.339 636.314 299.039C633.914 296.839 630.314 294.239 628.414 293.339C626.514 292.539 623.114 291.339 620.914 290.739C618.714 290.139 615.814 289.639 614.414 289.639C613.014 289.639 609.514 290.339 606.614 291.139C603.214 292.139 599.914 294.039 596.914 296.939L592.314 301.139L592.414 259.639H577.414V311.139Z" fill="#DDA517"/>
<path d="M450.514 214.639C449.214 211.739 448.914 205.939 448.614 182.439L448.314 153.639H465.414V176.839C465.414 191.139 465.814 201.639 466.514 204.139C467.214 206.339 468.814 209.339 470.314 210.739C471.714 212.239 474.714 213.639 476.914 214.039C479.114 214.439 482.814 214.339 485.114 213.739C487.714 213.039 490.614 211.339 492.414 209.339C494.014 207.639 495.814 204.239 496.414 201.839C496.914 199.539 497.414 187.739 497.414 153.639H514.414V227.639H497.414V224.639C497.414 223.039 497.114 221.639 496.614 221.639C496.214 221.739 495.214 222.539 494.414 223.439C493.614 224.439 491.114 226.339 488.914 227.639C485.514 229.639 483.614 230.039 476.414 230.039C469.414 230.039 467.014 229.639 463.014 227.539C460.314 226.239 456.714 223.539 455.114 221.639C453.414 219.739 451.414 216.539 450.514 214.639Z" fill="#DDA517"/>
<path d="M762.414 154.639C763.814 153.939 766.014 152.939 767.414 152.539C768.814 152.139 772.514 151.739 775.714 151.739C778.814 151.639 783.514 152.339 786.214 153.139C788.814 154.039 792.314 155.939 794.014 157.439C795.714 158.939 798.414 162.139 802.914 168.939L803.414 227.639H786.414L786.214 201.939C785.914 178.039 785.814 175.939 783.914 173.239C782.814 171.639 780.714 169.739 779.214 169.039C777.614 168.239 774.214 167.639 771.414 167.639C767.914 167.639 765.314 168.339 762.914 169.939C761.014 171.139 758.614 173.739 757.714 175.639C756.114 178.639 755.914 182.539 755.414 227.639H737.414V153.639H755.014L754.714 156.639C754.514 158.239 754.914 159.639 755.414 159.639C756.014 159.639 757.214 158.839 758.214 157.839C759.114 156.839 761.014 155.439 762.414 154.639Z" fill="#DDA517"/>
<path d="M673.414 156.239C675.314 155.139 678.914 153.739 681.414 152.939C683.914 152.239 689.014 151.839 692.914 152.039C698.214 152.239 701.314 152.939 705.914 155.239C709.114 156.839 713.214 159.539 714.914 161.139C716.514 162.839 718.714 165.239 719.714 166.439C720.614 167.639 721.414 169.239 721.414 169.839C721.414 170.539 721.814 171.539 722.214 172.139C722.714 172.639 723.614 175.239 724.314 177.839C724.914 180.539 725.414 185.539 725.414 195.639H672.414L673.014 199.339C673.314 201.439 674.314 204.539 675.314 206.139C676.214 207.739 679.214 210.639 681.914 212.439C686.114 215.239 687.814 215.739 692.714 215.639C696.514 215.639 699.814 214.939 702.714 213.439C705.014 212.239 707.914 210.239 709.214 208.939C710.514 207.639 711.814 206.639 712.214 206.639C712.614 206.639 715.014 208.039 717.714 209.639C720.314 211.339 722.414 213.039 722.414 213.639C722.414 214.139 720.014 217.039 717.214 219.939C714.314 222.839 709.714 226.339 706.914 227.639C702.714 229.639 700.414 230.039 692.414 230.039C684.214 230.039 682.114 229.639 677.214 227.339C674.014 225.839 669.214 222.539 666.614 219.839C663.914 217.239 661.014 213.739 660.114 212.139C659.314 210.539 657.914 207.139 657.114 204.639C656.314 202.139 655.314 197.839 654.914 195.139C654.614 192.339 654.814 187.239 655.314 183.639C655.914 180.039 657.514 174.839 658.814 172.139C660.114 169.339 663.114 165.139 665.514 162.639C667.914 160.139 671.514 157.239 673.414 156.239Z" fill="#DDA517"/>
<path d="M553.114 156.739C555.214 155.139 558.314 153.339 559.914 152.739C561.514 152.139 566.314 151.839 570.414 152.039C574.714 152.139 579.214 152.939 580.914 153.839C582.514 154.739 585.414 156.839 587.114 158.539C588.914 160.239 590.414 162.239 590.414 162.839C590.414 163.539 591.714 162.739 593.214 161.139C594.714 159.439 597.314 157.139 598.914 156.039C600.514 154.939 603.714 153.439 605.914 152.839C608.114 152.239 612.114 151.639 614.914 151.639C617.614 151.639 621.814 152.239 624.114 153.139C626.514 153.939 629.814 155.639 631.514 156.839C633.214 158.139 636.014 161.339 640.914 169.039L641.414 227.639H624.414V203.339C624.414 181.339 624.214 178.739 622.414 174.839C621.214 172.339 619.214 170.039 617.414 169.139C615.814 168.339 612.514 167.639 610.114 167.639C607.414 167.639 604.814 168.439 602.714 169.939C600.914 171.139 598.814 173.639 598.014 175.339C596.714 178.039 596.414 183.039 596.414 227.639H578.414L578.214 201.239C577.914 176.439 577.814 174.739 575.914 172.639C574.814 171.439 572.714 169.839 571.214 169.039C569.614 168.239 566.614 167.639 564.414 167.639C562.214 167.639 559.214 168.239 557.714 169.039C556.114 169.839 554.014 171.539 553.014 172.839C551.914 174.139 550.714 176.539 550.214 178.139C549.814 179.739 549.414 191.639 549.414 227.639H532.414V153.639H549.414V159.639L553.114 156.739Z" fill="#DDA517"/>
<path d="M372.414 227.639V175.139V122.639H390.414V209.639H439.414V227.639H372.414Z" fill="#DDA517"/>
<path d="M205.561 67.002C207.631 67.0155 210.374 67.0954 213.296 67.252L213.295 67.2529C218.953 67.472 226.907 68.5024 231.936 69.5518L232.909 69.7637L233.003 69.7842L233.098 69.8076C237.619 70.938 244.186 72.8549 247.757 74.2832C250.739 75.476 255.083 77.2707 257.268 78.3057C259.645 79.432 264.817 82.3599 268.861 85.0205H268.86C273.54 88.0409 280.898 94.395 285.778 99.2754C288.168 101.665 290.518 104.066 292.389 106.027C293.887 107.598 295.568 109.391 296.479 110.565C297.717 112.107 299.913 115.308 301.457 117.578C303.518 120.609 306.552 126.177 308.486 130.368C310.338 134.38 312.804 140.525 313.928 144.529L314.333 145.891C315.302 149.195 316.402 153.272 317.026 155.681L317.057 155.798L317.084 155.916C317.584 158.083 317.882 161.67 318.075 165.065C318.285 168.751 318.414 173.122 318.414 177.34C318.414 190.118 317.994 194.891 315.713 203.446L315.714 203.447C314.427 208.296 312.311 215.385 310.721 219.102C309.307 222.604 306.52 228.159 304.312 231.804C302.217 235.26 299.021 240.074 297.036 242.643L297.035 242.642C294.882 245.525 289.38 251.508 284.909 256.169C280.423 260.846 275.233 266.797 273.192 269.373C271.315 271.989 268.673 276.245 267.464 278.664C266.359 280.874 264.668 285.766 263.884 289.163C263.063 292.721 261.911 299.32 261.342 303.779L261.33 303.872L261.316 303.965C260.936 306.521 260.445 309.143 259.942 311.364C259.531 313.18 258.881 315.83 257.964 317.664C256.645 320.301 254.227 323.137 252.275 324.752L252.276 324.753C252.266 324.762 252.255 324.77 252.244 324.778C252.234 324.787 252.224 324.796 252.214 324.805L252.213 324.804C250.727 326.027 248.926 326.976 247.549 327.611C246.018 328.318 244.239 328.991 242.486 329.448L242.327 329.489L242.167 329.525C240.7 329.851 238.747 330.008 236.996 330.113C235.028 330.232 232.556 330.323 229.677 330.387C223.907 330.515 216.275 330.539 207.313 330.438H207.312C194.264 330.29 186.72 330.191 182.099 329.867C177.198 329.524 174.217 328.851 171.005 326.927V326.928C169.258 325.916 167.62 324.577 166.335 323.358C165.081 322.17 163.64 320.602 162.582 318.909L162.502 318.78L162.426 318.648C161.173 316.484 160.387 313.769 159.853 311.428C159.266 308.855 158.788 305.827 158.459 302.535L158.457 302.518L158.456 302.501C157.976 297.504 156.938 291.218 156.251 288.776L156.225 288.683L156.2 288.588C155.591 286.228 153.746 281.426 152.265 278.464L152.241 278.418L152.219 278.371C150.779 275.406 148.201 271.336 146.893 269.643C145.449 267.774 141.573 263.315 138.271 259.819C134.944 256.297 130.536 251.489 128.459 248.97C126.576 246.788 123.494 243.098 121.654 240.592C119.632 237.966 116.627 233.329 114.784 230.076C112.85 226.663 110.169 220.871 108.688 216.8C107.15 212.825 105.167 206.551 104.097 202.375L104.098 202.374C102.28 195.547 101.915 189.583 102.015 176.072C102.064 168.453 102.133 163.523 102.564 159.453C103.028 155.077 103.894 151.819 105.206 147.515L105.209 147.505C106.806 142.288 109.644 134.699 111.643 130.368C113.655 126.008 117.29 119.601 119.926 115.647C122.674 111.525 127.92 105.126 131.781 101.05L131.822 101.006L131.864 100.963C135.69 97.031 141.464 91.7735 144.792 89.1113L144.865 89.0537L144.938 88.9971C147.95 86.6882 152.569 83.4272 155.424 81.8389C157.848 80.4117 161.388 78.5407 163.223 77.5752L163.391 77.4873L163.562 77.4053C165.873 76.3103 171.216 74.1875 175.506 72.7227C180.167 71.1311 187.637 69.4269 192.553 68.7432L192.839 68.6973C194.99 68.355 196.887 68.0531 198.271 67.8135C198.779 67.7256 199.163 67.6545 199.435 67.6016C199.738 67.4972 199.979 67.4314 200.125 67.3936C200.74 67.2339 201.259 67.1667 201.473 67.1406C201.98 67.0786 202.477 67.051 202.828 67.0361C203.592 67.0037 204.543 66.9953 205.561 67.002ZM195.95 69.7754L195.952 69.7773C195.975 69.7541 195.998 69.7308 196.021 69.708C195.998 69.7307 195.974 69.7521 195.95 69.7754Z" stroke="#DDA517" stroke-width="18"/>
</svg>
